<mxfile host="app.diagrams.net" agent="Mozilla/5.0 (Windows NT 10.0; Win64; x64; rv:128.0) Gecko/20100101 Firefox/128.0" version="24.7.16">
  <diagram name="Page-1" id="JAbip0iFwTqwoyu5ySwG">
    <mxGraphModel dx="3240" dy="3120" grid="0" gridSize="10" guides="1" tooltips="1" connect="1" arrows="1" fold="1" page="0" pageScale="1" pageWidth="850" pageHeight="1100" math="0" shadow="0">
      <root>
        <mxCell id="0" />
        <mxCell id="1" parent="0" />
        <mxCell id="okJXJ1eoAdspNH03dLRz-14" value="Compte" style="swimlane;fontStyle=0;childLayout=stackLayout;horizontal=1;startSize=26;fillColor=none;horizontalStack=0;resizeParent=1;resizeParentMax=0;resizeLast=0;collapsible=1;marginBottom=0;whiteSpace=wrap;html=1;" parent="1" vertex="1">
          <mxGeometry x="-837" y="-1461" width="140" height="156" as="geometry" />
        </mxCell>
        <mxCell id="okJXJ1eoAdspNH03dLRz-15" value="&lt;div&gt;# id : long&lt;/div&gt;" style="text;strokeColor=none;fillColor=none;align=left;verticalAlign=top;spacingLeft=4;spacingRight=4;overflow=hidden;rotatable=0;points=[[0,0.5],[1,0.5]];portConstraint=eastwest;whiteSpace=wrap;html=1;" parent="okJXJ1eoAdspNH03dLRz-14" vertex="1">
          <mxGeometry y="26" width="140" height="26" as="geometry" />
        </mxCell>
        <mxCell id="np4cIBySYKn88yQwKAYq-8" value="&lt;div&gt;- nom : string&lt;/div&gt;" style="text;strokeColor=none;fillColor=none;align=left;verticalAlign=top;spacingLeft=4;spacingRight=4;overflow=hidden;rotatable=0;points=[[0,0.5],[1,0.5]];portConstraint=eastwest;whiteSpace=wrap;html=1;" parent="okJXJ1eoAdspNH03dLRz-14" vertex="1">
          <mxGeometry y="52" width="140" height="26" as="geometry" />
        </mxCell>
        <mxCell id="okJXJ1eoAdspNH03dLRz-16" value="&lt;div&gt;- email : string&lt;/div&gt;" style="text;strokeColor=none;fillColor=none;align=left;verticalAlign=top;spacingLeft=4;spacingRight=4;overflow=hidden;rotatable=0;points=[[0,0.5],[1,0.5]];portConstraint=eastwest;whiteSpace=wrap;html=1;" parent="okJXJ1eoAdspNH03dLRz-14" vertex="1">
          <mxGeometry y="78" width="140" height="26" as="geometry" />
        </mxCell>
        <mxCell id="okJXJ1eoAdspNH03dLRz-17" value="- mot de passe : string" style="text;strokeColor=none;fillColor=none;align=left;verticalAlign=top;spacingLeft=4;spacingRight=4;overflow=hidden;rotatable=0;points=[[0,0.5],[1,0.5]];portConstraint=eastwest;whiteSpace=wrap;html=1;" parent="okJXJ1eoAdspNH03dLRz-14" vertex="1">
          <mxGeometry y="104" width="140" height="26" as="geometry" />
        </mxCell>
        <mxCell id="okJXJ1eoAdspNH03dLRz-127" value="- role : string" style="text;strokeColor=none;fillColor=none;align=left;verticalAlign=top;spacingLeft=4;spacingRight=4;overflow=hidden;rotatable=0;points=[[0,0.5],[1,0.5]];portConstraint=eastwest;whiteSpace=wrap;html=1;" parent="okJXJ1eoAdspNH03dLRz-14" vertex="1">
          <mxGeometry y="130" width="140" height="26" as="geometry" />
        </mxCell>
        <mxCell id="okJXJ1eoAdspNH03dLRz-18" value="EmployÃ© mairie" style="swimlane;fontStyle=0;childLayout=stackLayout;horizontal=1;startSize=26;fillColor=none;horizontalStack=0;resizeParent=1;resizeParentMax=0;resizeLast=0;collapsible=1;marginBottom=0;whiteSpace=wrap;html=1;" parent="1" vertex="1">
          <mxGeometry x="-1098" y="-1264" width="140" height="52" as="geometry" />
        </mxCell>
        <mxCell id="np4cIBySYKn88yQwKAYq-9" value="&lt;div&gt;- prenom : string&lt;/div&gt;" style="text;strokeColor=none;fillColor=none;align=left;verticalAlign=top;spacingLeft=4;spacingRight=4;overflow=hidden;rotatable=0;points=[[0,0.5],[1,0.5]];portConstraint=eastwest;whiteSpace=wrap;html=1;" parent="okJXJ1eoAdspNH03dLRz-18" vertex="1">
          <mxGeometry y="26" width="140" height="26" as="geometry" />
        </mxCell>
        <mxCell id="okJXJ1eoAdspNH03dLRz-28" value="Citoyen" style="swimlane;fontStyle=0;childLayout=stackLayout;horizontal=1;startSize=26;fillColor=none;horizontalStack=0;resizeParent=1;resizeParentMax=0;resizeLast=0;collapsible=1;marginBottom=0;whiteSpace=wrap;html=1;" parent="1" vertex="1">
          <mxGeometry x="-922" y="-1264" width="140" height="78" as="geometry" />
        </mxCell>
        <mxCell id="np4cIBySYKn88yQwKAYq-21" value="&lt;div&gt;- prenom : string&lt;/div&gt;" style="text;strokeColor=none;fillColor=none;align=left;verticalAlign=top;spacingLeft=4;spacingRight=4;overflow=hidden;rotatable=0;points=[[0,0.5],[1,0.5]];portConstraint=eastwest;whiteSpace=wrap;html=1;" parent="okJXJ1eoAdspNH03dLRz-28" vertex="1">
          <mxGeometry y="26" width="140" height="26" as="geometry" />
        </mxCell>
        <mxCell id="okJXJ1eoAdspNH03dLRz-32" value="&lt;div&gt;- foyer id : long&lt;br&gt;&lt;/div&gt;" style="text;strokeColor=none;fillColor=none;align=left;verticalAlign=top;spacingLeft=4;spacingRight=4;overflow=hidden;rotatable=0;points=[[0,0.5],[1,0.5]];portConstraint=eastwest;whiteSpace=wrap;html=1;" parent="okJXJ1eoAdspNH03dLRz-28" vertex="1">
          <mxGeometry y="52" width="140" height="26" as="geometry" />
        </mxCell>
        <mxCell id="okJXJ1eoAdspNH03dLRz-33" value="Lieu" style="swimlane;fontStyle=0;childLayout=stackLayout;horizontal=1;startSize=26;fillColor=none;horizontalStack=0;resizeParent=1;resizeParentMax=0;resizeLast=0;collapsible=1;marginBottom=0;whiteSpace=wrap;html=1;" parent="1" vertex="1">
          <mxGeometry x="2" y="-1250" width="140" height="156" as="geometry" />
        </mxCell>
        <mxCell id="okJXJ1eoAdspNH03dLRz-34" value="&lt;div&gt;# id : long&lt;/div&gt;" style="text;strokeColor=none;fillColor=none;align=left;verticalAlign=top;spacingLeft=4;spacingRight=4;overflow=hidden;rotatable=0;points=[[0,0.5],[1,0.5]];portConstraint=eastwest;whiteSpace=wrap;html=1;" parent="okJXJ1eoAdspNH03dLRz-33" vertex="1">
          <mxGeometry y="26" width="140" height="26" as="geometry" />
        </mxCell>
        <mxCell id="NfyWjWNFqi-aIi9zMegt-40" value="- ville : string" style="text;strokeColor=none;fillColor=none;align=left;verticalAlign=top;spacingLeft=4;spacingRight=4;overflow=hidden;rotatable=0;points=[[0,0.5],[1,0.5]];portConstraint=eastwest;whiteSpace=wrap;html=1;" vertex="1" parent="okJXJ1eoAdspNH03dLRz-33">
          <mxGeometry y="52" width="140" height="26" as="geometry" />
        </mxCell>
        <mxCell id="NfyWjWNFqi-aIi9zMegt-42" value="- rue : string" style="text;strokeColor=none;fillColor=none;align=left;verticalAlign=top;spacingLeft=4;spacingRight=4;overflow=hidden;rotatable=0;points=[[0,0.5],[1,0.5]];portConstraint=eastwest;whiteSpace=wrap;html=1;" vertex="1" parent="okJXJ1eoAdspNH03dLRz-33">
          <mxGeometry y="78" width="140" height="26" as="geometry" />
        </mxCell>
        <mxCell id="NfyWjWNFqi-aIi9zMegt-41" value="- code postal : int" style="text;strokeColor=none;fillColor=none;align=left;verticalAlign=top;spacingLeft=4;spacingRight=4;overflow=hidden;rotatable=0;points=[[0,0.5],[1,0.5]];portConstraint=eastwest;whiteSpace=wrap;html=1;" vertex="1" parent="okJXJ1eoAdspNH03dLRz-33">
          <mxGeometry y="104" width="140" height="26" as="geometry" />
        </mxCell>
        <mxCell id="okJXJ1eoAdspNH03dLRz-132" value="- zone id : long" style="text;strokeColor=none;fillColor=none;align=left;verticalAlign=top;spacingLeft=4;spacingRight=4;overflow=hidden;rotatable=0;points=[[0,0.5],[1,0.5]];portConstraint=eastwest;whiteSpace=wrap;html=1;" parent="okJXJ1eoAdspNH03dLRz-33" vertex="1">
          <mxGeometry y="130" width="140" height="26" as="geometry" />
        </mxCell>
        <mxCell id="okJXJ1eoAdspNH03dLRz-37" value="Foyer" style="swimlane;fontStyle=0;childLayout=stackLayout;horizontal=1;startSize=26;fillColor=none;horizontalStack=0;resizeParent=1;resizeParentMax=0;resizeLast=0;collapsible=1;marginBottom=0;whiteSpace=wrap;html=1;" parent="1" vertex="1">
          <mxGeometry x="-4" y="-998" width="140" height="52" as="geometry">
            <mxRectangle x="-28" y="-874" width="72" height="26" as="alternateBounds" />
          </mxGeometry>
        </mxCell>
        <mxCell id="okJXJ1eoAdspNH03dLRz-41" value="Espace vert" style="swimlane;fontStyle=0;childLayout=stackLayout;horizontal=1;startSize=26;fillColor=none;horizontalStack=0;resizeParent=1;resizeParentMax=0;resizeLast=0;collapsible=1;marginBottom=0;whiteSpace=wrap;html=1;" parent="1" vertex="1">
          <mxGeometry x="180" y="-1011" width="140" height="78" as="geometry">
            <mxRectangle x="180" y="-1011" width="99" height="26" as="alternateBounds" />
          </mxGeometry>
        </mxCell>
        <mxCell id="NfyWjWNFqi-aIi9zMegt-44" value="- reference : string" style="text;strokeColor=none;fillColor=none;align=left;verticalAlign=top;spacingLeft=4;spacingRight=4;overflow=hidden;rotatable=0;points=[[0,0.5],[1,0.5]];portConstraint=eastwest;whiteSpace=wrap;html=1;" vertex="1" parent="okJXJ1eoAdspNH03dLRz-41">
          <mxGeometry y="26" width="140" height="26" as="geometry" />
        </mxCell>
        <mxCell id="okJXJ1eoAdspNH03dLRz-114" value="&lt;div&gt;- nom : string&lt;/div&gt;" style="text;strokeColor=none;fillColor=none;align=left;verticalAlign=top;spacingLeft=4;spacingRight=4;overflow=hidden;rotatable=0;points=[[0,0.5],[1,0.5]];portConstraint=eastwest;whiteSpace=wrap;html=1;" parent="okJXJ1eoAdspNH03dLRz-41" vertex="1">
          <mxGeometry y="52" width="140" height="26" as="geometry" />
        </mxCell>
        <mxCell id="okJXJ1eoAdspNH03dLRz-48" value="" style="endArrow=diamondThin;endFill=0;endSize=24;html=1;rounded=0;entryX=0.5;entryY=1;entryDx=0;entryDy=0;exitX=0.5;exitY=0;exitDx=0;exitDy=0;" parent="1" source="okJXJ1eoAdspNH03dLRz-28" target="okJXJ1eoAdspNH03dLRz-14" edge="1">
          <mxGeometry width="160" relative="1" as="geometry">
            <mxPoint x="-747" y="-1182" as="sourcePoint" />
            <mxPoint x="-587" y="-1182" as="targetPoint" />
          </mxGeometry>
        </mxCell>
        <mxCell id="okJXJ1eoAdspNH03dLRz-49" value="" style="endArrow=diamondThin;endFill=0;endSize=24;html=1;rounded=0;exitX=0.5;exitY=0;exitDx=0;exitDy=0;entryX=0.5;entryY=1;entryDx=0;entryDy=0;" parent="1" source="okJXJ1eoAdspNH03dLRz-37" target="okJXJ1eoAdspNH03dLRz-33" edge="1">
          <mxGeometry width="160" relative="1" as="geometry">
            <mxPoint x="-468" y="-985" as="sourcePoint" />
            <mxPoint x="53" y="-1141" as="targetPoint" />
          </mxGeometry>
        </mxCell>
        <mxCell id="okJXJ1eoAdspNH03dLRz-50" value="" style="endArrow=diamondThin;endFill=0;endSize=24;html=1;rounded=0;exitX=0.5;exitY=0;exitDx=0;exitDy=0;entryX=0.75;entryY=1;entryDx=0;entryDy=0;" parent="1" source="okJXJ1eoAdspNH03dLRz-41" target="okJXJ1eoAdspNH03dLRz-33" edge="1">
          <mxGeometry width="160" relative="1" as="geometry">
            <mxPoint x="-34" y="-1061" as="sourcePoint" />
            <mxPoint x="77" y="-1137" as="targetPoint" />
          </mxGeometry>
        </mxCell>
        <mxCell id="okJXJ1eoAdspNH03dLRz-51" value="Compagnie d eau" style="swimlane;fontStyle=0;childLayout=stackLayout;horizontal=1;startSize=26;fillColor=none;horizontalStack=0;resizeParent=1;resizeParentMax=0;resizeLast=0;collapsible=1;marginBottom=0;whiteSpace=wrap;html=1;" parent="1" vertex="1">
          <mxGeometry x="-639" y="-1244" width="140" height="69" as="geometry" />
        </mxCell>
        <mxCell id="okJXJ1eoAdspNH03dLRz-54" value="&lt;div&gt;- zone ids :&amp;nbsp;&lt;/div&gt;&lt;div&gt;List&amp;lt;Long&amp;gt;&lt;/div&gt;" style="text;strokeColor=none;fillColor=none;align=left;verticalAlign=top;spacingLeft=4;spacingRight=4;overflow=hidden;rotatable=0;points=[[0,0.5],[1,0.5]];portConstraint=eastwest;rounded=0;shadow=0;glass=0;textShadow=0;labelBorderColor=none;labelBackgroundColor=none;fontSize=12;fontColor=default;whiteSpace=wrap;html=1;spacingBottom=0;autosize=0;autosizeGrid=1;movableLabel=0;resizable=1;" parent="okJXJ1eoAdspNH03dLRz-51" vertex="1">
          <mxGeometry y="26" width="140" height="43" as="geometry" />
        </mxCell>
        <mxCell id="okJXJ1eoAdspNH03dLRz-55" value="" style="endArrow=diamondThin;endFill=0;endSize=24;html=1;rounded=0;entryX=1;entryY=1;entryDx=0;entryDy=0;exitX=0.5;exitY=0;exitDx=0;exitDy=0;" parent="1" source="okJXJ1eoAdspNH03dLRz-51" target="okJXJ1eoAdspNH03dLRz-14" edge="1">
          <mxGeometry width="160" relative="1" as="geometry">
            <mxPoint x="-500" y="-1132" as="sourcePoint" />
            <mxPoint x="-340" y="-1132" as="targetPoint" />
          </mxGeometry>
        </mxCell>
        <mxCell id="okJXJ1eoAdspNH03dLRz-71" value="Arrive d eau automatique" style="swimlane;fontStyle=0;childLayout=stackLayout;horizontal=1;startSize=26;fillColor=none;horizontalStack=0;resizeParent=1;resizeParentMax=0;resizeLast=0;collapsible=1;marginBottom=0;whiteSpace=wrap;html=1;" parent="1" vertex="1">
          <mxGeometry x="192" y="-1483" width="140" height="78" as="geometry">
            <mxRectangle x="-327" y="-587" width="138" height="26" as="alternateBounds" />
          </mxGeometry>
        </mxCell>
        <mxCell id="okJXJ1eoAdspNH03dLRz-87" value="- programmation&amp;nbsp; :" style="text;strokeColor=none;fillColor=none;align=left;verticalAlign=top;spacingLeft=4;spacingRight=4;overflow=hidden;rotatable=0;points=[[0,0.5],[1,0.5]];portConstraint=eastwest;whiteSpace=wrap;html=1;" parent="okJXJ1eoAdspNH03dLRz-71" vertex="1">
          <mxGeometry y="26" width="140" height="26" as="geometry" />
        </mxCell>
        <mxCell id="NfyWjWNFqi-aIi9zMegt-43" value="- actif : bool" style="text;strokeColor=none;fillColor=none;align=left;verticalAlign=top;spacingLeft=4;spacingRight=4;overflow=hidden;rotatable=0;points=[[0,0.5],[1,0.5]];portConstraint=eastwest;whiteSpace=wrap;html=1;" vertex="1" parent="okJXJ1eoAdspNH03dLRz-71">
          <mxGeometry y="52" width="140" height="26" as="geometry" />
        </mxCell>
        <mxCell id="okJXJ1eoAdspNH03dLRz-82" value="Alerte" style="swimlane;fontStyle=0;childLayout=stackLayout;horizontal=1;startSize=26;fillColor=none;horizontalStack=0;resizeParent=1;resizeParentMax=0;resizeLast=0;collapsible=1;marginBottom=0;whiteSpace=wrap;html=1;" parent="1" vertex="1">
          <mxGeometry x="2" y="-1457" width="140" height="182" as="geometry" />
        </mxCell>
        <mxCell id="okJXJ1eoAdspNH03dLRz-83" value="&lt;div&gt;# id : long&lt;/div&gt;&lt;div&gt;&lt;br&gt;&lt;/div&gt;" style="text;strokeColor=none;fillColor=none;align=left;verticalAlign=top;spacingLeft=4;spacingRight=4;overflow=hidden;rotatable=0;points=[[0,0.5],[1,0.5]];portConstraint=eastwest;whiteSpace=wrap;html=1;" parent="okJXJ1eoAdspNH03dLRz-82" vertex="1">
          <mxGeometry y="26" width="140" height="26" as="geometry" />
        </mxCell>
        <mxCell id="np4cIBySYKn88yQwKAYq-7" value="&lt;div&gt;- title : string&lt;/div&gt;" style="text;strokeColor=none;fillColor=none;align=left;verticalAlign=top;spacingLeft=4;spacingRight=4;overflow=hidden;rotatable=0;points=[[0,0.5],[1,0.5]];portConstraint=eastwest;whiteSpace=wrap;html=1;" parent="okJXJ1eoAdspNH03dLRz-82" vertex="1">
          <mxGeometry y="52" width="140" height="26" as="geometry" />
        </mxCell>
        <mxCell id="okJXJ1eoAdspNH03dLRz-85" value="&lt;div&gt;- message : string&lt;/div&gt;" style="text;strokeColor=none;fillColor=none;align=left;verticalAlign=top;spacingLeft=4;spacingRight=4;overflow=hidden;rotatable=0;points=[[0,0.5],[1,0.5]];portConstraint=eastwest;whiteSpace=wrap;html=1;" parent="okJXJ1eoAdspNH03dLRz-82" vertex="1">
          <mxGeometry y="78" width="140" height="26" as="geometry" />
        </mxCell>
        <mxCell id="NfyWjWNFqi-aIi9zMegt-17" value="- ouverte : bool" style="text;strokeColor=none;fillColor=none;align=left;verticalAlign=top;spacingLeft=4;spacingRight=4;overflow=hidden;rotatable=0;points=[[0,0.5],[1,0.5]];portConstraint=eastwest;whiteSpace=wrap;html=1;" vertex="1" parent="okJXJ1eoAdspNH03dLRz-82">
          <mxGeometry y="104" width="140" height="26" as="geometry" />
        </mxCell>
        <mxCell id="np4cIBySYKn88yQwKAYq-4" value="- date  creation : date" style="text;strokeColor=none;fillColor=none;align=left;verticalAlign=top;spacingLeft=4;spacingRight=4;overflow=hidden;rotatable=0;points=[[0,0.5],[1,0.5]];portConstraint=eastwest;whiteSpace=wrap;html=1;" parent="okJXJ1eoAdspNH03dLRz-82" vertex="1">
          <mxGeometry y="130" width="140" height="26" as="geometry" />
        </mxCell>
        <mxCell id="okJXJ1eoAdspNH03dLRz-84" value="- lieu id : long" style="text;strokeColor=none;fillColor=none;align=left;verticalAlign=top;spacingLeft=4;spacingRight=4;overflow=hidden;rotatable=0;points=[[0,0.5],[1,0.5]];portConstraint=eastwest;whiteSpace=wrap;html=1;" parent="okJXJ1eoAdspNH03dLRz-82" vertex="1">
          <mxGeometry y="156" width="140" height="26" as="geometry" />
        </mxCell>
        <mxCell id="okJXJ1eoAdspNH03dLRz-90" value="" style="endArrow=open;endFill=1;endSize=12;html=1;rounded=0;exitX=1;exitY=0.5;exitDx=0;exitDy=0;entryX=0;entryY=0.5;entryDx=0;entryDy=0;" parent="1" source="okJXJ1eoAdspNH03dLRz-84" target="np4cIBySYKn88yQwKAYq-25" edge="1">
          <mxGeometry width="160" relative="1" as="geometry">
            <mxPoint x="-157" y="-1214" as="sourcePoint" />
            <mxPoint x="3" y="-1214" as="targetPoint" />
          </mxGeometry>
        </mxCell>
        <mxCell id="okJXJ1eoAdspNH03dLRz-93" value="Technicien" style="swimlane;fontStyle=0;childLayout=stackLayout;horizontal=1;startSize=26;fillColor=none;horizontalStack=0;resizeParent=1;resizeParentMax=0;resizeLast=0;collapsible=1;marginBottom=0;whiteSpace=wrap;html=1;" parent="1" vertex="1">
          <mxGeometry x="-806" y="-1102" width="140" height="145" as="geometry" />
        </mxCell>
        <mxCell id="np4cIBySYKn88yQwKAYq-23" value="&lt;div&gt;- prenom : string&lt;/div&gt;" style="text;strokeColor=none;fillColor=none;align=left;verticalAlign=top;spacingLeft=4;spacingRight=4;overflow=hidden;rotatable=0;points=[[0,0.5],[1,0.5]];portConstraint=eastwest;whiteSpace=wrap;html=1;" parent="okJXJ1eoAdspNH03dLRz-93" vertex="1">
          <mxGeometry y="26" width="140" height="26" as="geometry" />
        </mxCell>
        <mxCell id="np4cIBySYKn88yQwKAYq-16" value="&lt;div&gt;- poste : string&lt;/div&gt;" style="text;strokeColor=none;fillColor=none;align=left;verticalAlign=top;spacingLeft=4;spacingRight=4;overflow=hidden;rotatable=0;points=[[0,0.5],[1,0.5]];portConstraint=eastwest;whiteSpace=wrap;html=1;" parent="okJXJ1eoAdspNH03dLRz-93" vertex="1">
          <mxGeometry y="52" width="140" height="26" as="geometry" />
        </mxCell>
        <mxCell id="okJXJ1eoAdspNH03dLRz-102" value="&lt;div&gt;- zone id : long&lt;/div&gt;&lt;div&gt;&lt;br&gt;&lt;/div&gt;" style="text;strokeColor=none;fillColor=none;align=left;verticalAlign=top;spacingLeft=4;spacingRight=4;overflow=hidden;rotatable=0;points=[[0,0.5],[1,0.5]];portConstraint=eastwest;whiteSpace=wrap;html=1;" parent="okJXJ1eoAdspNH03dLRz-93" vertex="1">
          <mxGeometry y="78" width="140" height="28" as="geometry" />
        </mxCell>
        <mxCell id="np4cIBySYKn88yQwKAYq-15" value="&lt;div&gt;- compagnie d eau id : long&lt;/div&gt;&lt;div&gt;&lt;br&gt;&lt;/div&gt;" style="text;strokeColor=none;fillColor=none;align=left;verticalAlign=top;spacingLeft=4;spacingRight=4;overflow=hidden;rotatable=0;points=[[0,0.5],[1,0.5]];portConstraint=eastwest;whiteSpace=wrap;html=1;" parent="okJXJ1eoAdspNH03dLRz-93" vertex="1">
          <mxGeometry y="106" width="140" height="39" as="geometry" />
        </mxCell>
        <mxCell id="okJXJ1eoAdspNH03dLRz-105" value="Rapport intervention" style="swimlane;fontStyle=0;childLayout=stackLayout;horizontal=1;startSize=26;fillColor=none;horizontalStack=0;resizeParent=1;resizeParentMax=0;resizeLast=0;collapsible=1;marginBottom=0;whiteSpace=wrap;html=1;" parent="1" vertex="1">
          <mxGeometry x="-371" y="-1012" width="140" height="182" as="geometry" />
        </mxCell>
        <mxCell id="okJXJ1eoAdspNH03dLRz-106" value="# id : long" style="text;strokeColor=none;fillColor=none;align=left;verticalAlign=top;spacingLeft=4;spacingRight=4;overflow=hidden;rotatable=0;points=[[0,0.5],[1,0.5]];portConstraint=eastwest;whiteSpace=wrap;html=1;" parent="okJXJ1eoAdspNH03dLRz-105" vertex="1">
          <mxGeometry y="26" width="140" height="26" as="geometry" />
        </mxCell>
        <mxCell id="np4cIBySYKn88yQwKAYq-12" value="&lt;div&gt;- titre : string&lt;/div&gt;" style="text;strokeColor=none;fillColor=none;align=left;verticalAlign=top;spacingLeft=4;spacingRight=4;overflow=hidden;rotatable=0;points=[[0,0.5],[1,0.5]];portConstraint=eastwest;whiteSpace=wrap;html=1;" parent="okJXJ1eoAdspNH03dLRz-105" vertex="1">
          <mxGeometry y="52" width="140" height="26" as="geometry" />
        </mxCell>
        <mxCell id="okJXJ1eoAdspNH03dLRz-107" value="- date : date" style="text;strokeColor=none;fillColor=none;align=left;verticalAlign=top;spacingLeft=4;spacingRight=4;overflow=hidden;rotatable=0;points=[[0,0.5],[1,0.5]];portConstraint=eastwest;whiteSpace=wrap;html=1;" parent="okJXJ1eoAdspNH03dLRz-105" vertex="1">
          <mxGeometry y="78" width="140" height="26" as="geometry" />
        </mxCell>
        <mxCell id="okJXJ1eoAdspNH03dLRz-216" value="&lt;div&gt;- commentaire : string&lt;/div&gt;" style="text;strokeColor=none;fillColor=none;align=left;verticalAlign=top;spacingLeft=4;spacingRight=4;overflow=hidden;rotatable=0;points=[[0,0.5],[1,0.5]];portConstraint=eastwest;whiteSpace=wrap;html=1;" parent="okJXJ1eoAdspNH03dLRz-105" vertex="1">
          <mxGeometry y="104" width="140" height="26" as="geometry" />
        </mxCell>
        <mxCell id="okJXJ1eoAdspNH03dLRz-108" value="&lt;div&gt;- lieu id : long&lt;/div&gt;" style="text;strokeColor=none;fillColor=none;align=left;verticalAlign=top;spacingLeft=4;spacingRight=4;overflow=hidden;rotatable=0;points=[[0,0.5],[1,0.5]];portConstraint=eastwest;whiteSpace=wrap;html=1;" parent="okJXJ1eoAdspNH03dLRz-105" vertex="1">
          <mxGeometry y="130" width="140" height="26" as="geometry" />
        </mxCell>
        <mxCell id="okJXJ1eoAdspNH03dLRz-110" value="&lt;div&gt;- technicien id : long&lt;/div&gt;" style="text;strokeColor=none;fillColor=none;align=left;verticalAlign=top;spacingLeft=4;spacingRight=4;overflow=hidden;rotatable=0;points=[[0,0.5],[1,0.5]];portConstraint=eastwest;whiteSpace=wrap;html=1;" parent="okJXJ1eoAdspNH03dLRz-105" vertex="1">
          <mxGeometry y="156" width="140" height="26" as="geometry" />
        </mxCell>
        <mxCell id="okJXJ1eoAdspNH03dLRz-109" value="" style="endArrow=open;endFill=1;endSize=12;html=1;rounded=0;exitX=1;exitY=0.5;exitDx=0;exitDy=0;entryX=0;entryY=1;entryDx=0;entryDy=0;" parent="1" source="okJXJ1eoAdspNH03dLRz-107" target="okJXJ1eoAdspNH03dLRz-33" edge="1">
          <mxGeometry width="160" relative="1" as="geometry">
            <mxPoint x="-579" y="-1057" as="sourcePoint" />
            <mxPoint x="-84" y="-922" as="targetPoint" />
            <Array as="points">
              <mxPoint x="-46" y="-921" />
            </Array>
          </mxGeometry>
        </mxCell>
        <mxCell id="okJXJ1eoAdspNH03dLRz-111" value="" style="endArrow=open;endFill=1;endSize=12;html=1;rounded=0;exitX=0;exitY=0.5;exitDx=0;exitDy=0;entryX=1;entryY=0.5;entryDx=0;entryDy=0;" parent="1" source="okJXJ1eoAdspNH03dLRz-107" target="okJXJ1eoAdspNH03dLRz-102" edge="1">
          <mxGeometry width="160" relative="1" as="geometry">
            <mxPoint x="-436" y="-1043" as="sourcePoint" />
            <mxPoint x="-276" y="-1043" as="targetPoint" />
          </mxGeometry>
        </mxCell>
        <mxCell id="okJXJ1eoAdspNH03dLRz-116" value="Rendez vous" style="swimlane;fontStyle=0;childLayout=stackLayout;horizontal=1;startSize=26;fillColor=none;horizontalStack=0;resizeParent=1;resizeParentMax=0;resizeLast=0;collapsible=1;marginBottom=0;whiteSpace=wrap;html=1;" parent="1" vertex="1">
          <mxGeometry x="-344" y="-1338" width="140" height="156" as="geometry" />
        </mxCell>
        <mxCell id="okJXJ1eoAdspNH03dLRz-117" value="&lt;div&gt;# id : long&lt;/div&gt;" style="text;strokeColor=none;fillColor=none;align=left;verticalAlign=top;spacingLeft=4;spacingRight=4;overflow=hidden;rotatable=0;points=[[0,0.5],[1,0.5]];portConstraint=eastwest;whiteSpace=wrap;html=1;" parent="okJXJ1eoAdspNH03dLRz-116" vertex="1">
          <mxGeometry y="26" width="140" height="26" as="geometry" />
        </mxCell>
        <mxCell id="okJXJ1eoAdspNH03dLRz-120" value="- date : date" style="text;strokeColor=none;fillColor=none;align=left;verticalAlign=top;spacingLeft=4;spacingRight=4;overflow=hidden;rotatable=0;points=[[0,0.5],[1,0.5]];portConstraint=eastwest;whiteSpace=wrap;html=1;" parent="okJXJ1eoAdspNH03dLRz-116" vertex="1">
          <mxGeometry y="52" width="140" height="26" as="geometry" />
        </mxCell>
        <mxCell id="okJXJ1eoAdspNH03dLRz-140" value="- status : string" style="text;strokeColor=none;fillColor=none;align=left;verticalAlign=top;spacingLeft=4;spacingRight=4;overflow=hidden;rotatable=0;points=[[0,0.5],[1,0.5]];portConstraint=eastwest;whiteSpace=wrap;html=1;" parent="okJXJ1eoAdspNH03dLRz-116" vertex="1">
          <mxGeometry y="78" width="140" height="26" as="geometry" />
        </mxCell>
        <mxCell id="okJXJ1eoAdspNH03dLRz-121" value="- lieu id : long" style="text;strokeColor=none;fillColor=none;align=left;verticalAlign=top;spacingLeft=4;spacingRight=4;overflow=hidden;rotatable=0;points=[[0,0.5],[1,0.5]];portConstraint=eastwest;whiteSpace=wrap;html=1;" parent="okJXJ1eoAdspNH03dLRz-116" vertex="1">
          <mxGeometry y="104" width="140" height="26" as="geometry" />
        </mxCell>
        <mxCell id="okJXJ1eoAdspNH03dLRz-122" value="- technicien id : long" style="text;strokeColor=none;fillColor=none;align=left;verticalAlign=top;spacingLeft=4;spacingRight=4;overflow=hidden;rotatable=0;points=[[0,0.5],[1,0.5]];portConstraint=eastwest;whiteSpace=wrap;html=1;" parent="okJXJ1eoAdspNH03dLRz-116" vertex="1">
          <mxGeometry y="130" width="140" height="26" as="geometry" />
        </mxCell>
        <mxCell id="okJXJ1eoAdspNH03dLRz-128" value="Zone" style="swimlane;fontStyle=0;childLayout=stackLayout;horizontal=1;startSize=26;fillColor=none;horizontalStack=0;resizeParent=1;resizeParentMax=0;resizeLast=0;collapsible=1;marginBottom=0;whiteSpace=wrap;html=1;" parent="1" vertex="1">
          <mxGeometry x="-206" y="-1069" width="140" height="104" as="geometry" />
        </mxCell>
        <mxCell id="okJXJ1eoAdspNH03dLRz-129" value="# id : long" style="text;strokeColor=none;fillColor=none;align=left;verticalAlign=top;spacingLeft=4;spacingRight=4;overflow=hidden;rotatable=0;points=[[0,0.5],[1,0.5]];portConstraint=eastwest;whiteSpace=wrap;html=1;" parent="okJXJ1eoAdspNH03dLRz-128" vertex="1">
          <mxGeometry y="26" width="140" height="26" as="geometry" />
        </mxCell>
        <mxCell id="okJXJ1eoAdspNH03dLRz-130" value="&lt;div&gt;- nom : string&lt;/div&gt;" style="text;strokeColor=none;fillColor=none;align=left;verticalAlign=top;spacingLeft=4;spacingRight=4;overflow=hidden;rotatable=0;points=[[0,0.5],[1,0.5]];portConstraint=eastwest;whiteSpace=wrap;html=1;" parent="okJXJ1eoAdspNH03dLRz-128" vertex="1">
          <mxGeometry y="52" width="140" height="26" as="geometry" />
        </mxCell>
        <mxCell id="NfyWjWNFqi-aIi9zMegt-45" value="- reference : string" style="text;strokeColor=none;fillColor=none;align=left;verticalAlign=top;spacingLeft=4;spacingRight=4;overflow=hidden;rotatable=0;points=[[0,0.5],[1,0.5]];portConstraint=eastwest;whiteSpace=wrap;html=1;" vertex="1" parent="okJXJ1eoAdspNH03dLRz-128">
          <mxGeometry y="78" width="140" height="26" as="geometry" />
        </mxCell>
        <mxCell id="okJXJ1eoAdspNH03dLRz-133" value="" style="endArrow=open;endFill=1;endSize=12;html=1;rounded=0;exitX=0;exitY=0.5;exitDx=0;exitDy=0;entryX=1;entryY=0;entryDx=0;entryDy=0;" parent="1" source="okJXJ1eoAdspNH03dLRz-132" target="okJXJ1eoAdspNH03dLRz-128" edge="1">
          <mxGeometry width="160" relative="1" as="geometry">
            <mxPoint x="-284" y="-1043" as="sourcePoint" />
            <mxPoint x="-167" y="-1131" as="targetPoint" />
          </mxGeometry>
        </mxCell>
        <mxCell id="okJXJ1eoAdspNH03dLRz-134" value="Notification" style="swimlane;fontStyle=0;childLayout=stackLayout;horizontal=1;startSize=26;fillColor=none;horizontalStack=0;resizeParent=1;resizeParentMax=0;resizeLast=0;collapsible=1;marginBottom=0;whiteSpace=wrap;html=1;" parent="1" vertex="1">
          <mxGeometry x="-562" y="-1502" width="140" height="208" as="geometry" />
        </mxCell>
        <mxCell id="okJXJ1eoAdspNH03dLRz-135" value="# id : long" style="text;strokeColor=none;fillColor=none;align=left;verticalAlign=top;spacingLeft=4;spacingRight=4;overflow=hidden;rotatable=0;points=[[0,0.5],[1,0.5]];portConstraint=eastwest;whiteSpace=wrap;html=1;" parent="okJXJ1eoAdspNH03dLRz-134" vertex="1">
          <mxGeometry y="26" width="140" height="26" as="geometry" />
        </mxCell>
        <mxCell id="np4cIBySYKn88yQwKAYq-5" value="&lt;div&gt;- titre : string&lt;br&gt;&lt;/div&gt;" style="text;strokeColor=none;fillColor=none;align=left;verticalAlign=top;spacingLeft=4;spacingRight=4;overflow=hidden;rotatable=0;points=[[0,0.5],[1,0.5]];portConstraint=eastwest;whiteSpace=wrap;html=1;" parent="okJXJ1eoAdspNH03dLRz-134" vertex="1">
          <mxGeometry y="52" width="140" height="26" as="geometry" />
        </mxCell>
        <mxCell id="np4cIBySYKn88yQwKAYq-54" value="&lt;div&gt;- image url : string&lt;br&gt;&lt;/div&gt;" style="text;strokeColor=none;fillColor=none;align=left;verticalAlign=top;spacingLeft=4;spacingRight=4;overflow=hidden;rotatable=0;points=[[0,0.5],[1,0.5]];portConstraint=eastwest;whiteSpace=wrap;html=1;" parent="okJXJ1eoAdspNH03dLRz-134" vertex="1">
          <mxGeometry y="78" width="140" height="26" as="geometry" />
        </mxCell>
        <mxCell id="okJXJ1eoAdspNH03dLRz-136" value="&lt;div&gt;- message : string&lt;/div&gt;&lt;div&gt;&lt;br&gt;&lt;/div&gt;" style="text;strokeColor=none;fillColor=none;align=left;verticalAlign=top;spacingLeft=4;spacingRight=4;overflow=hidden;rotatable=0;points=[[0,0.5],[1,0.5]];portConstraint=eastwest;whiteSpace=wrap;html=1;" parent="okJXJ1eoAdspNH03dLRz-134" vertex="1">
          <mxGeometry y="104" width="140" height="26" as="geometry" />
        </mxCell>
        <mxCell id="okJXJ1eoAdspNH03dLRz-137" value="- ouvert : bool" style="text;strokeColor=none;fillColor=none;align=left;verticalAlign=top;spacingLeft=4;spacingRight=4;overflow=hidden;rotatable=0;points=[[0,0.5],[1,0.5]];portConstraint=eastwest;whiteSpace=wrap;html=1;" parent="okJXJ1eoAdspNH03dLRz-134" vertex="1">
          <mxGeometry y="130" width="140" height="26" as="geometry" />
        </mxCell>
        <mxCell id="okJXJ1eoAdspNH03dLRz-138" value="- date creation : date" style="text;strokeColor=none;fillColor=none;align=left;verticalAlign=top;spacingLeft=4;spacingRight=4;overflow=hidden;rotatable=0;points=[[0,0.5],[1,0.5]];portConstraint=eastwest;whiteSpace=wrap;html=1;" parent="okJXJ1eoAdspNH03dLRz-134" vertex="1">
          <mxGeometry y="156" width="140" height="26" as="geometry" />
        </mxCell>
        <mxCell id="np4cIBySYKn88yQwKAYq-1" value="- account id : long" style="text;strokeColor=none;fillColor=none;align=left;verticalAlign=top;spacingLeft=4;spacingRight=4;overflow=hidden;rotatable=0;points=[[0,0.5],[1,0.5]];portConstraint=eastwest;whiteSpace=wrap;html=1;" parent="okJXJ1eoAdspNH03dLRz-134" vertex="1">
          <mxGeometry y="182" width="140" height="26" as="geometry" />
        </mxCell>
        <mxCell id="okJXJ1eoAdspNH03dLRz-139" value="" style="endArrow=open;endFill=1;endSize=12;html=1;rounded=0;exitX=0;exitY=0.25;exitDx=0;exitDy=0;entryX=1;entryY=0.25;entryDx=0;entryDy=0;" parent="1" source="okJXJ1eoAdspNH03dLRz-134" target="okJXJ1eoAdspNH03dLRz-14" edge="1">
          <mxGeometry width="160" relative="1" as="geometry">
            <mxPoint x="-297" y="-1328" as="sourcePoint" />
            <mxPoint x="-137" y="-1328" as="targetPoint" />
          </mxGeometry>
        </mxCell>
        <mxCell id="okJXJ1eoAdspNH03dLRz-185" value="Rapport consommation" style="swimlane;fontStyle=0;childLayout=stackLayout;horizontal=1;startSize=26;fillColor=none;horizontalStack=0;resizeParent=1;resizeParentMax=0;resizeLast=0;collapsible=1;marginBottom=0;whiteSpace=wrap;html=1;" parent="1" vertex="1">
          <mxGeometry x="502" y="-1346" width="140" height="223" as="geometry">
            <mxRectangle x="588" y="-1538" width="145" height="26" as="alternateBounds" />
          </mxGeometry>
        </mxCell>
        <mxCell id="okJXJ1eoAdspNH03dLRz-186" value="# id : long" style="text;strokeColor=none;fillColor=none;align=left;verticalAlign=top;spacingLeft=4;spacingRight=4;overflow=hidden;rotatable=0;points=[[0,0.5],[1,0.5]];portConstraint=eastwest;whiteSpace=wrap;html=1;" parent="okJXJ1eoAdspNH03dLRz-185" vertex="1">
          <mxGeometry y="26" width="140" height="26" as="geometry" />
        </mxCell>
        <mxCell id="okJXJ1eoAdspNH03dLRz-187" value="- date debut : date" style="text;strokeColor=none;fillColor=none;align=left;verticalAlign=top;spacingLeft=4;spacingRight=4;overflow=hidden;rotatable=0;points=[[0,0.5],[1,0.5]];portConstraint=eastwest;whiteSpace=wrap;html=1;" parent="okJXJ1eoAdspNH03dLRz-185" vertex="1">
          <mxGeometry y="52" width="140" height="26" as="geometry" />
        </mxCell>
        <mxCell id="okJXJ1eoAdspNH03dLRz-188" value="- date fin : date" style="text;strokeColor=none;fillColor=none;align=left;verticalAlign=top;spacingLeft=4;spacingRight=4;overflow=hidden;rotatable=0;points=[[0,0.5],[1,0.5]];portConstraint=eastwest;whiteSpace=wrap;html=1;" parent="okJXJ1eoAdspNH03dLRz-185" vertex="1">
          <mxGeometry y="78" width="140" height="26" as="geometry" />
        </mxCell>
        <mxCell id="okJXJ1eoAdspNH03dLRz-189" value="- eau consomee litres : double" style="text;strokeColor=none;fillColor=none;align=left;verticalAlign=top;spacingLeft=4;spacingRight=4;overflow=hidden;rotatable=0;points=[[0,0.5],[1,0.5]];portConstraint=eastwest;whiteSpace=wrap;html=1;" parent="okJXJ1eoAdspNH03dLRz-185" vertex="1">
          <mxGeometry y="104" width="140" height="43" as="geometry" />
        </mxCell>
        <mxCell id="okJXJ1eoAdspNH03dLRz-190" value="- pression moyenne : double" style="text;strokeColor=none;fillColor=none;align=left;verticalAlign=top;spacingLeft=4;spacingRight=4;overflow=hidden;rotatable=0;points=[[0,0.5],[1,0.5]];portConstraint=eastwest;whiteSpace=wrap;html=1;" parent="okJXJ1eoAdspNH03dLRz-185" vertex="1">
          <mxGeometry y="147" width="140" height="43" as="geometry" />
        </mxCell>
        <mxCell id="okJXJ1eoAdspNH03dLRz-191" value="- materiel eau id : long" style="text;strokeColor=none;fillColor=none;align=left;verticalAlign=top;spacingLeft=4;spacingRight=4;overflow=hidden;rotatable=0;points=[[0,0.5],[1,0.5]];portConstraint=eastwest;whiteSpace=wrap;html=1;" parent="okJXJ1eoAdspNH03dLRz-185" vertex="1">
          <mxGeometry y="190" width="140" height="33" as="geometry" />
        </mxCell>
        <mxCell id="okJXJ1eoAdspNH03dLRz-192" value="" style="endArrow=open;endFill=1;endSize=12;html=1;rounded=0;exitX=0;exitY=0.5;exitDx=0;exitDy=0;entryX=1;entryY=0.5;entryDx=0;entryDy=0;" parent="1" source="okJXJ1eoAdspNH03dLRz-189" target="np4cIBySYKn88yQwKAYq-42" edge="1">
          <mxGeometry width="160" relative="1" as="geometry">
            <mxPoint x="521" y="-1169" as="sourcePoint" />
            <mxPoint x="520" y="-1499" as="targetPoint" />
          </mxGeometry>
        </mxCell>
        <mxCell id="okJXJ1eoAdspNH03dLRz-218" value="" style="endArrow=open;endFill=1;endSize=12;html=1;rounded=0;exitX=1;exitY=0.25;exitDx=0;exitDy=0;entryX=0;entryY=0.5;entryDx=0;entryDy=0;" parent="1" source="okJXJ1eoAdspNH03dLRz-116" target="okJXJ1eoAdspNH03dLRz-33" edge="1">
          <mxGeometry width="160" relative="1" as="geometry">
            <mxPoint x="-231" y="-1029" as="sourcePoint" />
            <mxPoint x="2" y="-1107" as="targetPoint" />
          </mxGeometry>
        </mxCell>
        <mxCell id="BpG9t5It9UeYLSpIFoHa-1" value="" style="endArrow=open;endFill=1;endSize=12;html=1;rounded=0;exitX=0.5;exitY=1;exitDx=0;exitDy=0;entryX=0.5;entryY=1;entryDx=0;entryDy=0;" parent="1" source="okJXJ1eoAdspNH03dLRz-28" target="okJXJ1eoAdspNH03dLRz-37" edge="1">
          <mxGeometry width="160" relative="1" as="geometry">
            <mxPoint x="-348" y="-998" as="sourcePoint" />
            <mxPoint x="-769" y="-851" as="targetPoint" />
            <Array as="points">
              <mxPoint x="-864" y="-734" />
              <mxPoint x="66" y="-736" />
            </Array>
          </mxGeometry>
        </mxCell>
        <mxCell id="np4cIBySYKn88yQwKAYq-13" value="" style="endArrow=open;endFill=1;endSize=12;html=1;rounded=0;exitX=0;exitY=0.5;exitDx=0;exitDy=0;entryX=1;entryY=0.25;entryDx=0;entryDy=0;" parent="1" source="okJXJ1eoAdspNH03dLRz-129" target="okJXJ1eoAdspNH03dLRz-93" edge="1">
          <mxGeometry width="160" relative="1" as="geometry">
            <mxPoint x="-309" y="-1051" as="sourcePoint" />
            <mxPoint x="-613" y="-1030" as="targetPoint" />
          </mxGeometry>
        </mxCell>
        <mxCell id="np4cIBySYKn88yQwKAYq-19" value="" style="endArrow=diamondThin;endFill=0;endSize=24;html=1;rounded=0;entryX=0.75;entryY=1;entryDx=0;entryDy=0;exitX=0.5;exitY=0;exitDx=0;exitDy=0;" parent="1" source="okJXJ1eoAdspNH03dLRz-93" target="okJXJ1eoAdspNH03dLRz-14" edge="1">
          <mxGeometry width="160" relative="1" as="geometry">
            <mxPoint x="-803" y="-1217" as="sourcePoint" />
            <mxPoint x="-718" y="-1284" as="targetPoint" />
          </mxGeometry>
        </mxCell>
        <mxCell id="np4cIBySYKn88yQwKAYq-24" value="ArrivÃ©e d eau" style="swimlane;fontStyle=0;childLayout=stackLayout;horizontal=1;startSize=26;fillColor=none;horizontalStack=0;resizeParent=1;resizeParentMax=0;resizeLast=0;collapsible=1;marginBottom=0;whiteSpace=wrap;html=1;" parent="1" vertex="1">
          <mxGeometry x="254" y="-1320" width="140" height="188" as="geometry" />
        </mxCell>
        <mxCell id="np4cIBySYKn88yQwKAYq-25" value="# id : long" style="text;strokeColor=none;fillColor=none;align=left;verticalAlign=top;spacingLeft=4;spacingRight=4;overflow=hidden;rotatable=0;points=[[0,0.5],[1,0.5]];portConstraint=eastwest;whiteSpace=wrap;html=1;" parent="np4cIBySYKn88yQwKAYq-24" vertex="1">
          <mxGeometry y="26" width="140" height="26" as="geometry" />
        </mxCell>
        <mxCell id="np4cIBySYKn88yQwKAYq-32" value="- reference : string" style="text;strokeColor=none;fillColor=none;align=left;verticalAlign=top;spacingLeft=4;spacingRight=4;overflow=hidden;rotatable=0;points=[[0,0.5],[1,0.5]];portConstraint=eastwest;whiteSpace=wrap;html=1;" parent="np4cIBySYKn88yQwKAYq-24" vertex="1">
          <mxGeometry y="52" width="140" height="26" as="geometry" />
        </mxCell>
        <mxCell id="np4cIBySYKn88yQwKAYq-42" value="- consomation eau : double" style="text;strokeColor=none;fillColor=none;align=left;verticalAlign=top;spacingLeft=4;spacingRight=4;overflow=hidden;rotatable=0;points=[[0,0.5],[1,0.5]];portConstraint=eastwest;whiteSpace=wrap;html=1;" parent="np4cIBySYKn88yQwKAYq-24" vertex="1">
          <mxGeometry y="78" width="140" height="42" as="geometry" />
        </mxCell>
        <mxCell id="np4cIBySYKn88yQwKAYq-41" value="- pression d eau : double" style="text;strokeColor=none;fillColor=none;align=left;verticalAlign=top;spacingLeft=4;spacingRight=4;overflow=hidden;rotatable=0;points=[[0,0.5],[1,0.5]];portConstraint=eastwest;whiteSpace=wrap;html=1;" parent="np4cIBySYKn88yQwKAYq-24" vertex="1">
          <mxGeometry y="120" width="140" height="42" as="geometry" />
        </mxCell>
        <mxCell id="np4cIBySYKn88yQwKAYq-27" value="- lieu id : long" style="text;strokeColor=none;fillColor=none;align=left;verticalAlign=top;spacingLeft=4;spacingRight=4;overflow=hidden;rotatable=0;points=[[0,0.5],[1,0.5]];portConstraint=eastwest;whiteSpace=wrap;html=1;" parent="np4cIBySYKn88yQwKAYq-24" vertex="1">
          <mxGeometry y="162" width="140" height="26" as="geometry" />
        </mxCell>
        <mxCell id="np4cIBySYKn88yQwKAYq-29" style="edgeStyle=orthogonalEdgeStyle;rounded=0;orthogonalLoop=1;jettySize=auto;html=1;exitX=0;exitY=0.5;exitDx=0;exitDy=0;entryX=1;entryY=0.5;entryDx=0;entryDy=0;" parent="1" source="np4cIBySYKn88yQwKAYq-27" target="okJXJ1eoAdspNH03dLRz-33" edge="1">
          <mxGeometry relative="1" as="geometry" />
        </mxCell>
        <mxCell id="np4cIBySYKn88yQwKAYq-35" value="Arrive d eau manuelle" style="swimlane;fontStyle=0;childLayout=stackLayout;horizontal=1;startSize=26;fillColor=none;horizontalStack=0;resizeParent=1;resizeParentMax=0;resizeLast=0;collapsible=1;marginBottom=0;whiteSpace=wrap;html=1;" parent="1" vertex="1">
          <mxGeometry x="377" y="-1483" width="140" height="52" as="geometry">
            <mxRectangle x="377" y="-1483" width="144" height="26" as="alternateBounds" />
          </mxGeometry>
        </mxCell>
        <mxCell id="np4cIBySYKn88yQwKAYq-43" value="" style="endArrow=diamondThin;endFill=0;endSize=24;html=1;rounded=0;exitX=0.5;exitY=1;exitDx=0;exitDy=0;entryX=0.25;entryY=0;entryDx=0;entryDy=0;" parent="1" source="okJXJ1eoAdspNH03dLRz-71" target="np4cIBySYKn88yQwKAYq-24" edge="1">
          <mxGeometry width="160" relative="1" as="geometry">
            <mxPoint x="193" y="-1374" as="sourcePoint" />
            <mxPoint x="164" y="-1522" as="targetPoint" />
          </mxGeometry>
        </mxCell>
        <mxCell id="np4cIBySYKn88yQwKAYq-44" value="" style="endArrow=diamondThin;endFill=0;endSize=24;html=1;rounded=0;exitX=0;exitY=1;exitDx=0;exitDy=0;entryX=0.75;entryY=0;entryDx=0;entryDy=0;" parent="1" source="np4cIBySYKn88yQwKAYq-35" target="np4cIBySYKn88yQwKAYq-24" edge="1">
          <mxGeometry width="160" relative="1" as="geometry">
            <mxPoint x="86" y="-978" as="sourcePoint" />
            <mxPoint x="57" y="-1126" as="targetPoint" />
          </mxGeometry>
        </mxCell>
        <mxCell id="np4cIBySYKn88yQwKAYq-49" value="Technicien municipal" style="swimlane;fontStyle=0;childLayout=stackLayout;horizontal=1;startSize=26;fillColor=none;horizontalStack=0;resizeParent=1;resizeParentMax=0;resizeLast=0;collapsible=1;marginBottom=0;whiteSpace=wrap;html=1;" parent="1" vertex="1">
          <mxGeometry x="-839" y="-831.5" width="140" height="52" as="geometry" />
        </mxCell>
        <mxCell id="np4cIBySYKn88yQwKAYq-53" value="Agent compagnie d eau" style="swimlane;fontStyle=0;childLayout=stackLayout;horizontal=1;startSize=26;fillColor=none;horizontalStack=0;resizeParent=1;resizeParentMax=0;resizeLast=0;collapsible=1;marginBottom=0;whiteSpace=wrap;html=1;" parent="1" vertex="1">
          <mxGeometry x="-660" y="-839" width="140" height="67" as="geometry" />
        </mxCell>
        <mxCell id="np4cIBySYKn88yQwKAYq-59" value="&lt;div&gt;- compagnie eau id : long&lt;/div&gt;&lt;div&gt;&lt;br&gt;&lt;/div&gt;" style="text;strokeColor=none;fillColor=none;align=left;verticalAlign=top;spacingLeft=4;spacingRight=4;overflow=hidden;rotatable=0;points=[[0,0.5],[1,0.5]];portConstraint=eastwest;whiteSpace=wrap;html=1;" parent="np4cIBySYKn88yQwKAYq-53" vertex="1">
          <mxGeometry y="26" width="140" height="41" as="geometry" />
        </mxCell>
        <mxCell id="np4cIBySYKn88yQwKAYq-57" value="" style="endArrow=diamondThin;endFill=0;endSize=24;html=1;rounded=0;entryX=0.25;entryY=1;entryDx=0;entryDy=0;exitX=0.5;exitY=0;exitDx=0;exitDy=0;" parent="1" source="np4cIBySYKn88yQwKAYq-49" target="okJXJ1eoAdspNH03dLRz-93" edge="1">
          <mxGeometry width="160" relative="1" as="geometry">
            <mxPoint x="-831" y="-759" as="sourcePoint" />
            <mxPoint x="-746" y="-826" as="targetPoint" />
          </mxGeometry>
        </mxCell>
        <mxCell id="np4cIBySYKn88yQwKAYq-58" value="" style="endArrow=diamondThin;endFill=0;endSize=24;html=1;rounded=0;entryX=0.75;entryY=1;entryDx=0;entryDy=0;exitX=0.5;exitY=0;exitDx=0;exitDy=0;" parent="1" source="np4cIBySYKn88yQwKAYq-53" target="okJXJ1eoAdspNH03dLRz-93" edge="1">
          <mxGeometry width="160" relative="1" as="geometry">
            <mxPoint x="-623" y="-646" as="sourcePoint" />
            <mxPoint x="-538" y="-713" as="targetPoint" />
          </mxGeometry>
        </mxCell>
        <mxCell id="np4cIBySYKn88yQwKAYq-60" value="" style="endArrow=open;endFill=1;endSize=12;html=1;rounded=0;entryX=0.5;entryY=1;entryDx=0;entryDy=0;exitX=0.75;exitY=0;exitDx=0;exitDy=0;" parent="1" source="np4cIBySYKn88yQwKAYq-53" target="okJXJ1eoAdspNH03dLRz-51" edge="1">
          <mxGeometry width="160" relative="1" as="geometry">
            <mxPoint x="-319" y="-972" as="sourcePoint" />
            <mxPoint x="-159" y="-972" as="targetPoint" />
          </mxGeometry>
        </mxCell>
        <mxCell id="NfyWjWNFqi-aIi9zMegt-18" value="Action" style="swimlane;fontStyle=0;childLayout=stackLayout;horizontal=1;startSize=26;fillColor=none;horizontalStack=0;resizeParent=1;resizeParentMax=0;resizeLast=0;collapsible=1;marginBottom=0;whiteSpace=wrap;html=1;" vertex="1" parent="1">
          <mxGeometry x="-219" y="-1609" width="140" height="182" as="geometry" />
        </mxCell>
        <mxCell id="NfyWjWNFqi-aIi9zMegt-19" value="# id : long" style="text;strokeColor=none;fillColor=none;align=left;verticalAlign=top;spacingLeft=4;spacingRight=4;overflow=hidden;rotatable=0;points=[[0,0.5],[1,0.5]];portConstraint=eastwest;whiteSpace=wrap;html=1;" vertex="1" parent="NfyWjWNFqi-aIi9zMegt-18">
          <mxGeometry y="26" width="140" height="26" as="geometry" />
        </mxCell>
        <mxCell id="NfyWjWNFqi-aIi9zMegt-20" value="- titre : string" style="text;strokeColor=none;fillColor=none;align=left;verticalAlign=top;spacingLeft=4;spacingRight=4;overflow=hidden;rotatable=0;points=[[0,0.5],[1,0.5]];portConstraint=eastwest;whiteSpace=wrap;html=1;" vertex="1" parent="NfyWjWNFqi-aIi9zMegt-18">
          <mxGeometry y="52" width="140" height="26" as="geometry" />
        </mxCell>
        <mxCell id="NfyWjWNFqi-aIi9zMegt-21" value="- date : date" style="text;strokeColor=none;fillColor=none;align=left;verticalAlign=top;spacingLeft=4;spacingRight=4;overflow=hidden;rotatable=0;points=[[0,0.5],[1,0.5]];portConstraint=eastwest;whiteSpace=wrap;html=1;" vertex="1" parent="NfyWjWNFqi-aIi9zMegt-18">
          <mxGeometry y="78" width="140" height="26" as="geometry" />
        </mxCell>
        <mxCell id="NfyWjWNFqi-aIi9zMegt-22" value="- status : string" style="text;strokeColor=none;fillColor=none;align=left;verticalAlign=top;spacingLeft=4;spacingRight=4;overflow=hidden;rotatable=0;points=[[0,0.5],[1,0.5]];portConstraint=eastwest;whiteSpace=wrap;html=1;" vertex="1" parent="NfyWjWNFqi-aIi9zMegt-18">
          <mxGeometry y="104" width="140" height="26" as="geometry" />
        </mxCell>
        <mxCell id="NfyWjWNFqi-aIi9zMegt-23" value="- technicien id : long" style="text;strokeColor=none;fillColor=none;align=left;verticalAlign=top;spacingLeft=4;spacingRight=4;overflow=hidden;rotatable=0;points=[[0,0.5],[1,0.5]];portConstraint=eastwest;whiteSpace=wrap;html=1;" vertex="1" parent="NfyWjWNFqi-aIi9zMegt-18">
          <mxGeometry y="130" width="140" height="26" as="geometry" />
        </mxCell>
        <mxCell id="NfyWjWNFqi-aIi9zMegt-30" value="- alerte id : long" style="text;strokeColor=none;fillColor=none;align=left;verticalAlign=top;spacingLeft=4;spacingRight=4;overflow=hidden;rotatable=0;points=[[0,0.5],[1,0.5]];portConstraint=eastwest;whiteSpace=wrap;html=1;" vertex="1" parent="NfyWjWNFqi-aIi9zMegt-18">
          <mxGeometry y="156" width="140" height="26" as="geometry" />
        </mxCell>
        <mxCell id="NfyWjWNFqi-aIi9zMegt-31" style="edgeStyle=orthogonalEdgeStyle;rounded=0;orthogonalLoop=1;jettySize=auto;html=1;exitX=1;exitY=0.5;exitDx=0;exitDy=0;entryX=0;entryY=0.5;entryDx=0;entryDy=0;" edge="1" parent="1" source="NfyWjWNFqi-aIi9zMegt-30" target="okJXJ1eoAdspNH03dLRz-83">
          <mxGeometry relative="1" as="geometry">
            <Array as="points">
              <mxPoint x="-79" y="-1445" />
              <mxPoint x="-41" y="-1445" />
              <mxPoint x="-41" y="-1418" />
            </Array>
          </mxGeometry>
        </mxCell>
        <mxCell id="NfyWjWNFqi-aIi9zMegt-32" style="edgeStyle=orthogonalEdgeStyle;rounded=0;orthogonalLoop=1;jettySize=auto;html=1;exitX=0;exitY=0.5;exitDx=0;exitDy=0;entryX=0;entryY=0.5;entryDx=0;entryDy=0;" edge="1" parent="1" source="NfyWjWNFqi-aIi9zMegt-20" target="np4cIBySYKn88yQwKAYq-15">
          <mxGeometry relative="1" as="geometry">
            <mxPoint x="-1176" y="-1555" as="targetPoint" />
            <Array as="points">
              <mxPoint x="-217" y="-1544" />
              <mxPoint x="-217" y="-1541" />
              <mxPoint x="-1178" y="-1541" />
              <mxPoint x="-1178" y="-971" />
              <mxPoint x="-806" y="-971" />
            </Array>
          </mxGeometry>
        </mxCell>
        <mxCell id="NfyWjWNFqi-aIi9zMegt-47" value="" style="endArrow=open;endFill=1;endSize=12;html=1;rounded=0;exitX=1;exitY=0.5;exitDx=0;exitDy=0;entryX=0;entryY=0;entryDx=0;entryDy=0;" edge="1" parent="1" source="okJXJ1eoAdspNH03dLRz-54" target="okJXJ1eoAdspNH03dLRz-128">
          <mxGeometry width="160" relative="1" as="geometry">
            <mxPoint x="-44" y="-1179" as="sourcePoint" />
            <mxPoint x="-504" y="-1212" as="targetPoint" />
          </mxGeometry>
        </mxCell>
        <mxCell id="NfyWjWNFqi-aIi9zMegt-48" value="" style="endArrow=open;endFill=1;endSize=12;html=1;rounded=0;exitX=0;exitY=0.5;exitDx=0;exitDy=0;entryX=1;entryY=0;entryDx=0;entryDy=0;" edge="1" parent="1" source="okJXJ1eoAdspNH03dLRz-122" target="okJXJ1eoAdspNH03dLRz-93">
          <mxGeometry width="160" relative="1" as="geometry">
            <mxPoint x="-186" y="-1010" as="sourcePoint" />
            <mxPoint x="-646" y="-1043" as="targetPoint" />
          </mxGeometry>
        </mxCell>
        <mxCell id="NfyWjWNFqi-aIi9zMegt-49" value="" style="endArrow=diamondThin;endFill=0;endSize=24;html=1;rounded=0;entryX=0;entryY=1;entryDx=0;entryDy=0;exitX=0.5;exitY=0;exitDx=0;exitDy=0;" edge="1" parent="1" source="okJXJ1eoAdspNH03dLRz-18" target="np4cIBySYKn88yQwKAYq-8">
          <mxGeometry width="160" relative="1" as="geometry">
            <mxPoint x="-1028" y="-1264" as="sourcePoint" />
            <mxPoint x="-837" y="-1331" as="targetPoint" />
          </mxGeometry>
        </mxCell>
      </root>
    </mxGraphModel>
  </diagram>
</mxfile>
